name Walk1.mot
datacolumns 19
datarows 12
range 3.99300000 4.00400000
endheader

                time	   L_ground_force_vx	   L_ground_force_vy	   L_ground_force_vz	   L_ground_force_px	   L_ground_force_py	   L_ground_force_pz	   R_ground_force_vx	   R_ground_force_vy	   R_ground_force_vz	   R_ground_force_px	   R_ground_force_py	   R_ground_force_pz	   L_ground_torque_x	   L_ground_torque_y	   L_ground_torque_z	   R_ground_torque_x	   R_ground_torque_y	   R_ground_torque_z	
          3.99300000	          0.00000000	          0.00000000	          0.00000000	          0.00000000	          0.00000000	          0.00000000	        -15.67099430	        668.22073677	        -35.76165709	          0.32627798	          0.00000000	          0.09591221	          0.00000000	          0.00000000	          0.00000000	          0.00000000	          6.07316461	          0.00000000	
          3.99400000	          0.00000000	          0.00000000	          0.00000000	          0.00000000	          0.00000000	          0.00000000	        -15.37489099	        666.20304826	        -35.81371349	          0.32638228	          0.00000000	          0.09603810	          0.00000000	          0.00000000	          0.00000000	          0.00000000	          6.01062416	          0.00000000	
          3.99500000	          0.00000000	          0.00000000	          0.00000000	          0.00000000	          0.00000000	          0.00000000	        -15.09062231	        664.10732555	        -35.86445512	          0.32650683	          0.00000000	          0.09607488	          0.00000000	          0.00000000	          0.00000000	          0.00000000	          5.92713156	          0.00000000	
          3.99600000	          0.00000000	          0.00000000	          0.00000000	          0.00000000	          0.00000000	          0.00000000	        -14.81395898	        661.96283091	        -35.89460398	          0.32669090	          0.00000000	          0.09603392	          0.00000000	          0.00000000	          0.00000000	          0.00000000	          5.83147816	          0.00000000	
          3.99700000	          0.00000000	          0.00000000	          0.00000000	          0.00000000	          0.00000000	          0.00000000	        -14.53394494	        659.81850864	        -35.91271720	          0.32693570	          0.00000000	          0.09596461	          0.00000000	          0.00000000	          0.00000000	          0.00000000	          5.73525446	          0.00000000	
          3.99800000	          0.00000000	          0.00000000	          0.00000000	          0.00000000	          0.00000000	          0.00000000	        -14.23878032	        657.75173524	        -35.94317368	          0.32722639	          0.00000000	          0.09592879	          0.00000000	          0.00000000	          0.00000000	          0.00000000	          5.64853735	          0.00000000	
          3.99900000	          0.00000000	          0.00000000	          0.00000000	          0.00000000	          0.00000000	          0.00000000	        -13.92054155	        655.83444203	        -36.00209095	          0.32755851	          0.00000000	          0.09596247	          0.00000000	          0.00000000	          0.00000000	          0.00000000	          5.57839915	          0.00000000	
          4.00000000	          0.00000000	          0.00000000	          0.00000000	          0.00000000	          0.00000000	          0.00000000	        -13.58543102	        654.07732591	        -36.08733317	          0.32792449	          0.00000000	          0.09605733	          0.00000000	          0.00000000	          0.00000000	          0.00000000	          5.52523751	          0.00000000	
          4.00100000	          0.00000000	          0.00000000	          0.00000000	          0.00000000	          0.00000000	          0.00000000	        -13.25359612	        652.40712826	        -36.18247715	          0.32829035	          0.00000000	          0.09617355	          0.00000000	          0.00000000	          0.00000000	          0.00000000	          5.48080254	          0.00000000	
          4.00200000	          0.00000000	          0.00000000	          0.00000000	          0.00000000	          0.00000000	          0.00000000	        -12.94149801	        650.71631512	        -36.26699321	          0.32861245	          0.00000000	          0.09626805	          0.00000000	          0.00000000	          0.00000000	          0.00000000	          5.43408626	          0.00000000	
          4.00300000	          0.00000000	          0.00000000	          0.00000000	          0.00000000	          0.00000000	          0.00000000	        -12.64951234	        648.95012571	        -36.32138554	          0.32887143	          0.00000000	          0.09631838	          0.00000000	          0.00000000	          0.00000000	          0.00000000	          5.37893623	          0.00000000	
          4.00400000	          0.00000000	          0.00000000	          0.00000000	          0.00000000	          0.00000000	          0.00000000	        -12.37351940	        647.13334490	        -36.33137368	          0.32907680	          0.00000000	          0.09632934	          0.00000000	          0.00000000	          0.00000000	          0.00000000	          5.31376860	          0.00000000	
